<?xml version="1.0" encoding="utf-8"?>
<!-- Generator: Adobe Illustrator 24.0.2, SVG Export Plug-In . SVG Version: 6.00 Build 0)  -->
<svg version="1.1" id="Слой_1" xmlns="http://www.w3.org/2000/svg" xmlns:xlink="http://www.w3.org/1999/xlink" x="0px" y="0px"
	 viewBox="0 0 151.27 32" style="enable-background:new 0 0 151.27 32;" xml:space="preserve">
<style type="text/css">
	.st0{fill:#373E47;}
	.st1{fill:#A45F93;}
	.st2{fill:#8B95A4;}
</style>
<g>
	<path class="st0" d="M4.75,7.27h6.87c1.36,0,2.37,0.06,3.04,0.17s1.27,0.35,1.79,0.71s0.97,0.84,1.32,1.44s0.53,1.27,0.53,2.01
		c0,0.8-0.22,1.54-0.65,2.21s-1.02,1.18-1.76,1.51c1.05,0.3,1.85,0.82,2.41,1.56s0.84,1.6,0.84,2.59c0,0.78-0.18,1.54-0.54,2.28
		s-0.86,1.33-1.49,1.77s-1.4,0.71-2.33,0.81c-0.58,0.06-1.97,0.1-4.18,0.12H4.75V7.27z M8.21,10.13v3.97h2.27
		c1.35,0,2.19-0.02,2.52-0.06c0.59-0.07,1.06-0.28,1.4-0.62s0.51-0.79,0.51-1.34c0-0.53-0.15-0.96-0.44-1.29s-0.73-0.53-1.31-0.6
		c-0.34-0.04-1.33-0.06-2.96-0.06H8.21z M8.21,16.96v4.59h3.21c1.25,0,2.04-0.04,2.38-0.11c0.52-0.09,0.94-0.32,1.26-0.69
		s0.49-0.85,0.49-1.46c0-0.52-0.13-0.95-0.38-1.31s-0.61-0.62-1.08-0.79s-1.5-0.25-3.08-0.25H8.21z"/>
	<path class="st0" d="M22.04,24.45V7.27h3.29v17.18H22.04z"/>
	<path class="st0" d="M36.9,24.45v-1.86c-0.45,0.66-1.05,1.19-1.79,1.57s-1.52,0.57-2.34,0.57c-0.84,0-1.59-0.18-2.25-0.55
		s-1.14-0.88-1.44-1.55s-0.45-1.58-0.45-2.75V12h3.29v5.72c0,1.75,0.06,2.82,0.18,3.22s0.34,0.71,0.66,0.94s0.73,0.35,1.22,0.35
		c0.56,0,1.07-0.15,1.51-0.46s0.75-0.69,0.91-1.15s0.25-1.58,0.25-3.36V12h3.29v12.45H36.9z"/>
	<path class="st0" d="M50.58,20.49l3.28,0.55c-0.42,1.2-1.09,2.12-2,2.75s-2.05,0.94-3.42,0.94c-2.16,0-3.77-0.71-4.8-2.12
		c-0.82-1.13-1.23-2.56-1.23-4.29c0-2.06,0.54-3.68,1.62-4.85s2.44-1.75,4.09-1.75c1.85,0,3.31,0.61,4.38,1.83s1.58,3.1,1.54,5.62
		h-8.25c0.02,0.98,0.29,1.74,0.8,2.28s1.14,0.81,1.9,0.81c0.52,0,0.95-0.14,1.3-0.42S50.4,21.11,50.58,20.49z M50.77,17.16
		c-0.02-0.95-0.27-1.68-0.74-2.17s-1.04-0.74-1.71-0.74c-0.72,0-1.31,0.26-1.78,0.79s-0.7,1.23-0.69,2.13H50.77z"/>
	<path class="st1" d="M56.74,24.45V7.27h5.57c2.11,0,3.48,0.09,4.13,0.26c0.98,0.26,1.81,0.82,2.47,1.68s1,1.98,1,3.35
		c0,1.05-0.19,1.94-0.57,2.66s-0.87,1.28-1.46,1.69s-1.19,0.68-1.8,0.81c-0.83,0.16-2.03,0.25-3.6,0.25h-2.26v6.48H56.74z
		 M60.21,10.18v4.88h1.9c1.37,0,2.28-0.09,2.74-0.27s0.82-0.46,1.08-0.84s0.39-0.83,0.39-1.34c0-0.63-0.18-1.14-0.55-1.55
		s-0.83-0.66-1.39-0.76c-0.41-0.08-1.25-0.12-2.5-0.12H60.21z"/>
	<path class="st1" d="M72.73,10.32V7.27h3.29v3.05H72.73z M72.73,24.45V12h3.29v12.45H72.73z"/>
	<path class="st1" d="M90.71,24.45h-3.29V18.1c0-1.34-0.07-2.21-0.21-2.61s-0.37-0.7-0.69-0.92s-0.7-0.33-1.14-0.33
		c-0.57,0-1.08,0.16-1.54,0.47s-0.76,0.73-0.93,1.24s-0.25,1.47-0.25,2.86v5.64h-3.29V12h3.06v1.83c1.09-1.41,2.45-2.11,4.1-2.11
		c0.73,0,1.39,0.13,1.99,0.39s1.06,0.6,1.37,1s0.52,0.87,0.64,1.38s0.18,1.25,0.18,2.21V24.45z"/>
	<path class="st1" d="M93.94,24.45V7.27h3.29v9.12l3.86-4.38h4.05l-4.25,4.55l4.56,7.9h-3.55l-3.13-5.59l-1.54,1.61v3.98H93.94z"/>
	<path class="st2" d="M106.97,24.45v-2.47h2.47v2.47H106.97z"/>
	<path class="st2" d="M120.11,17.88l-2.43,0.44c-0.08-0.49-0.27-0.85-0.56-1.1c-0.29-0.25-0.67-0.37-1.13-0.37
		c-0.62,0-1.11,0.21-1.47,0.64s-0.55,1.14-0.55,2.13c0,1.11,0.19,1.89,0.56,2.35c0.37,0.46,0.87,0.69,1.5,0.69
		c0.47,0,0.85-0.13,1.15-0.4s0.51-0.73,0.63-1.38l2.43,0.41c-0.25,1.11-0.74,1.95-1.45,2.52s-1.67,0.85-2.87,0.85
		c-1.37,0-2.45-0.43-3.26-1.29c-0.81-0.86-1.22-2.05-1.22-3.58c0-1.54,0.41-2.74,1.22-3.6s1.92-1.29,3.3-1.29
		c1.14,0,2.04,0.24,2.71,0.73S119.82,16.87,120.11,17.88z"/>
	<path class="st2" d="M121.41,19.65c0-0.82,0.2-1.61,0.61-2.38s0.98-1.35,1.72-1.76s1.57-0.61,2.48-0.61c1.41,0,2.57,0.46,3.47,1.38
		s1.35,2.08,1.35,3.48c0,1.41-0.46,2.58-1.37,3.51s-2.06,1.39-3.44,1.39c-0.86,0-1.67-0.19-2.45-0.58s-1.37-0.95-1.77-1.7
		S121.41,20.72,121.41,19.65z M123.94,19.78c0,0.93,0.22,1.63,0.66,2.13s0.98,0.74,1.63,0.74s1.18-0.25,1.62-0.74
		s0.66-1.21,0.66-2.14c0-0.91-0.22-1.62-0.66-2.11s-0.98-0.74-1.62-0.74s-1.19,0.25-1.63,0.74S123.94,18.86,123.94,19.78z"/>
	<path class="st2" d="M132.79,15.12h2.28v1.27c0.81-0.99,1.78-1.49,2.91-1.49c0.6,0,1.12,0.12,1.56,0.37s0.8,0.62,1.08,1.12
		c0.41-0.5,0.85-0.87,1.33-1.12s0.98-0.37,1.52-0.37c0.69,0,1.27,0.14,1.74,0.42s0.83,0.69,1.06,1.23c0.17,0.4,0.25,1.04,0.25,1.93
		v5.97h-2.47v-5.33c0-0.93-0.08-1.52-0.25-1.79c-0.23-0.35-0.58-0.53-1.05-0.53c-0.35,0-0.67,0.11-0.98,0.32s-0.52,0.52-0.66,0.93
		s-0.2,1.05-0.2,1.93v4.48h-2.47v-5.12c0-0.91-0.04-1.49-0.13-1.76s-0.22-0.46-0.41-0.59c-0.18-0.13-0.43-0.19-0.75-0.19
		c-0.38,0-0.72,0.1-1.03,0.31s-0.52,0.5-0.65,0.89c-0.13,0.39-0.2,1.03-0.2,1.92v4.54h-2.47V15.12z"/>
</g>
</svg>
